<?xml version="1.0" encoding="UTF-8"?>
<svg xmlns="http://www.w3.org/2000/svg" xmlns:xlink="http://www.w3.org/1999/xlink" width="150pt" height="150pt" viewBox="0 0 150 150" version="1.1">
<g id="surface13291973">
<path style=" stroke:none;fill-rule:nonzero;fill:rgb(46.666667%,46.666667%,46.666667%);fill-opacity:1;" d="M 75 150 C 33.578125 150 0 116.421875 0 75 C 0 33.578125 33.578125 0 75 0 C 116.421875 0 150 33.578125 150 75 C 150 116.421875 116.421875 150 75 150 Z M 75 150 "/>
<path style=" stroke:none;fill-rule:nonzero;fill:rgb(100%,100%,100%);fill-opacity:1;" d="M 44.339844 29.851562 C 38.589844 29.984375 33.035156 33.027344 29.96875 38.351562 L 29.972656 38.351562 C 28.433594 41.019531 27.683594 43.957031 27.683594 46.835938 C 27.683594 52.730469 30.761719 58.445312 36.195312 61.601562 C 36.195312 61.601562 36.195312 61.601562 36.199219 61.601562 C 49.671875 69.382812 57.96875 83.75 57.96875 99.316406 L 57.96875 103.132812 C 57.96875 107.808594 59.871094 112.089844 62.957031 115.175781 C 65.960938 118.183594 70.121094 120.078125 74.667969 120.160156 C 84.308594 120.328125 92.023438 111.992188 92.023438 102.496094 L 92.023438 99.316406 C 92.023438 83.75 100.320312 69.382812 113.792969 61.601562 C 121.921875 56.90625 124.71875 46.457031 120.023438 38.351562 L 120.019531 38.34375 C 115.34375 30.242188 104.894531 27.417969 96.785156 32.121094 L 86.382812 38.136719 C 83.792969 34.65625 79.628906 32.421875 74.992188 32.421875 C 70.359375 32.421875 66.203125 34.65625 63.609375 38.136719 L 53.207031 32.121094 C 51.179688 30.945312 49.003906 30.242188 46.808594 29.972656 C 45.988281 29.871094 45.164062 29.832031 44.339844 29.851562 Z M 44.429688 34.570312 C 45.019531 34.558594 45.613281 34.589844 46.207031 34.664062 C 47.789062 34.859375 49.355469 35.371094 50.824219 36.222656 C 50.828125 36.226562 50.828125 36.226562 50.832031 36.226562 L 61.445312 42.375 C 61.019531 43.726562 60.765625 45.160156 60.765625 46.648438 L 60.765625 63.25 C 60.765625 67.164062 62.363281 70.730469 64.914062 73.308594 C 64.921875 73.316406 64.925781 73.324219 64.933594 73.328125 C 67.515625 75.878906 71.078125 77.480469 74.992188 77.480469 C 82.824219 77.480469 89.222656 71.078125 89.222656 63.25 L 89.222656 46.648438 C 89.222656 45.15625 88.972656 43.722656 88.546875 42.371094 L 99.164062 36.226562 C 99.164062 36.226562 99.164062 36.226562 99.167969 36.222656 C 105.046875 32.816406 112.519531 34.832031 115.910156 40.714844 C 115.914062 40.71875 115.914062 40.71875 115.914062 40.722656 C 119.328125 46.605469 117.332031 54.078125 111.421875 57.492188 C 96.488281 66.121094 87.28125 82.0625 87.28125 99.316406 L 87.28125 102.496094 C 87.28125 109.40625 81.570312 115.539062 74.753906 115.421875 C 71.476562 115.363281 68.472656 113.988281 66.308594 111.824219 C 64.082031 109.597656 62.710938 106.523438 62.710938 103.132812 L 62.710938 99.316406 C 62.710938 82.066406 53.507812 66.125 38.574219 57.496094 L 38.570312 57.492188 C 34.613281 55.191406 32.429688 51.085938 32.429688 46.835938 C 32.429688 44.777344 32.960938 42.652344 34.078125 40.722656 C 34.078125 40.71875 34.082031 40.71875 34.082031 40.714844 C 36.304688 36.855469 40.289062 34.660156 44.429688 34.570312 Z M 74.992188 37.164062 C 78.121094 37.164062 80.875 38.65625 82.597656 40.988281 C 82.9375 41.445312 83.242188 41.933594 83.476562 42.398438 C 83.476562 42.402344 83.480469 42.402344 83.484375 42.40625 C 84.125 43.667969 84.480469 45.101562 84.480469 46.648438 L 84.480469 63.25 C 84.480469 65.222656 83.886719 67.050781 82.867188 68.5625 C 82.527344 69.066406 82.136719 69.539062 81.710938 69.964844 C 81.28125 70.394531 80.8125 70.785156 80.304688 71.125 C 79.296875 71.804688 78.148438 72.292969 76.910156 72.546875 C 76.292969 72.671875 75.652344 72.734375 74.992188 72.734375 C 72.367188 72.734375 70.011719 71.675781 68.277344 69.964844 C 66.566406 68.230469 65.507812 65.875 65.507812 63.25 L 65.507812 46.648438 C 65.507812 46.261719 65.527344 45.882812 65.574219 45.511719 C 65.703125 44.394531 66.027344 43.351562 66.507812 42.40625 C 66.511719 42.402344 66.515625 42.402344 66.519531 42.398438 C 66.75 41.933594 67.054688 41.445312 67.394531 40.988281 C 69.117188 38.65625 71.867188 37.164062 74.992188 37.164062 Z M 74.992188 37.164062 "/>
</g>
</svg>
